<svg width="21" height="21" viewBox="0 0 21 21" fill="none" xmlns="http://www.w3.org/2000/svg">
<path d="M14 2.625C14.2143 2.62503 14.4212 2.70371 14.5813 2.84613C14.7415 2.98854 14.8438 3.18478 14.8689 3.39762L14.875 3.5V4.375H16.625C17.0665 4.37486 17.4917 4.54161 17.8155 4.84181C18.1392 5.14201 18.3375 5.55349 18.3706 5.99375L18.375 6.125V16.625C18.3751 17.0665 18.2084 17.4917 17.9082 17.8155C17.608 18.1392 17.1965 18.3375 16.7562 18.3706L16.625 18.375H4.375C3.9335 18.3751 3.50825 18.2084 3.18452 17.9082C2.86079 17.608 2.66249 17.1965 2.62938 16.7562L2.625 16.625V6.125C2.62486 5.6835 2.79161 5.25825 3.09181 4.93452C3.39201 4.61079 3.80349 4.41249 4.24375 4.37938L4.375 4.375H6.125V3.5C6.12525 3.27698 6.21064 3.06247 6.36374 2.9003C6.51684 2.73813 6.72608 2.64054 6.94872 2.62747C7.17136 2.6144 7.39058 2.68684 7.5616 2.82998C7.73262 2.97312 7.84253 3.17617 7.86888 3.39762L7.875 3.5V4.375H13.125V3.5C13.125 3.26794 13.2172 3.04538 13.3813 2.88128C13.5454 2.71719 13.7679 2.625 14 2.625ZM16.625 10.5H4.375V16.625H16.625V10.5ZM16.625 6.125H4.375V8.75H16.625V6.125Z" fill="#FFBD59"/>
</svg>
