<svg width="21" height="21" viewBox="0 0 21 21" fill="none" xmlns="http://www.w3.org/2000/svg">
<path d="M7 2.625H14C14.4641 2.625 14.9092 2.80937 15.2374 3.13756C15.5656 3.46575 15.75 3.91087 15.75 4.375V5.9675C15.75 6.64669 15.9082 7.31654 16.212 7.924L17.038 9.576C17.3418 10.1835 17.5 10.8533 17.5 11.5325V16.625C17.5 17.0891 17.3156 17.5342 16.9874 17.8624C16.6592 18.1906 16.2141 18.375 15.75 18.375H5.25C4.78587 18.375 4.34075 18.1906 4.01256 17.8624C3.68437 17.5342 3.5 17.0891 3.5 16.625V11.5325C3.50005 10.8533 3.65822 10.1835 3.962 9.576L5.25 7V4.375C5.25 3.91087 5.43437 3.46575 5.76256 3.13756C6.09075 2.80937 6.53587 2.625 7 2.625Z" stroke="#FFBD59" stroke-width="1.75" stroke-linecap="round" stroke-linejoin="round"/>
<path d="M5.25 18.375C5.71413 18.375 6.15925 18.1906 6.48744 17.8624C6.81563 17.5342 7 17.0891 7 16.625V11.5325C6.99995 10.8533 6.84178 10.1835 6.538 9.576L5.25 7M9.625 6.125H11.375M10.5 13.125C10.5 13.5891 10.6844 14.0342 11.0126 14.3624C11.3408 14.6906 11.7859 14.875 12.25 14.875C12.7141 14.875 13.1592 14.6906 13.4874 14.3624C13.8156 14.0342 14 13.5891 14 13.125C14 12.6609 13.8156 12.2158 13.4874 11.8876C13.1592 11.5594 12.7141 11.375 12.25 11.375C11.7859 11.375 11.3408 11.5594 11.0126 11.8876C10.6844 12.2158 10.5 12.6609 10.5 13.125Z" stroke="#FFBD59" stroke-width="1.75" stroke-linecap="round" stroke-linejoin="round"/>
</svg>
