<svg width="21" height="21" viewBox="0 0 21 21" fill="none" xmlns="http://www.w3.org/2000/svg">
<path d="M10.5 1.64062C8.74778 1.64063 7.03492 2.16022 5.578 3.1337C4.12108 4.10718 2.98555 5.49082 2.31501 7.10966C1.64446 8.7285 1.46902 10.5098 1.81086 12.2284C2.1527 13.9469 2.99647 15.5255 4.23548 16.7645C5.47449 18.0035 7.05307 18.8473 8.77163 19.1891C10.4902 19.531 12.2715 19.3555 13.8903 18.685C15.5092 18.0145 16.8928 16.8789 17.8663 15.422C18.8398 13.9651 19.3594 12.2522 19.3594 10.5C19.3568 8.15115 18.4225 5.89924 16.7617 4.23835C15.1008 2.57746 12.8489 1.64323 10.5 1.64062ZM17.3906 10.5C17.3901 10.9054 17.3538 11.31 17.2823 11.7091C16.8538 10.8046 16.3454 9.9401 15.7631 9.12598C16.2931 9.25019 16.8156 9.4041 17.3283 9.58699C17.369 9.88963 17.3899 10.1946 17.3906 10.5ZM16.6023 7.3057C15.7943 7.09494 14.9717 6.94496 14.1414 6.85699C14.0534 6.02663 13.9034 5.20402 13.6927 4.39605C14.9346 5.04919 15.9492 6.06376 16.6023 7.3057ZM11.413 3.67172C11.5959 4.18438 11.7498 4.70693 11.874 5.23688C11.0599 4.6546 10.1954 4.14618 9.29086 3.71766C9.99143 3.59081 10.7076 3.57531 11.413 3.67172ZM6.65028 4.78734C8.11059 5.25602 9.48888 5.94958 10.7354 6.84305C8.26315 7.0822 5.875 7.86816 3.74391 9.14402C4.10348 7.36668 5.14733 5.80193 6.65028 4.78734ZM3.69141 11.5377C6.18931 9.72979 9.19006 8.74828 12.2735 8.73059C12.2558 11.814 11.2743 14.8148 9.46641 17.3127C8.01498 17.0889 6.67265 16.4083 5.6342 15.3699C4.59576 14.3315 3.91524 12.9891 3.69141 11.5377ZM11.8601 17.2561C13.1359 15.125 13.9219 12.7369 14.1611 10.2646C15.0545 11.5111 15.7481 12.8894 16.2168 14.3497C15.2012 15.8536 13.6348 16.8975 11.856 17.2561H11.8601Z" fill="#FFBD59"/>
</svg>
