<svg width="21" height="21" viewBox="0 0 21 21" fill="none" xmlns="http://www.w3.org/2000/svg">
<g clip-path="url(#clip0_270_86)">
<path fill-rule="evenodd" clip-rule="evenodd" d="M5.57631 8.99407C5.18256 8.6782 5.20181 8.20132 5.40656 7.79182C5.71495 7.17507 6.14182 6.62511 6.66279 6.17336C7.18375 5.7216 7.78861 5.3769 8.44281 5.15894L8.51806 5.13357L8.31244 4.5167C8.19702 4.17013 8.16559 3.8011 8.22075 3.44001C8.27591 3.07892 8.41607 2.7361 8.6297 2.4398C8.84332 2.1435 9.12428 1.90219 9.44944 1.73576C9.77461 1.56933 10.1347 1.48254 10.4999 1.48254C10.8652 1.48254 11.2253 1.56933 11.5504 1.73576C11.8756 1.90219 12.1566 2.1435 12.3702 2.4398C12.5838 2.7361 12.724 3.07892 12.7791 3.44001C12.8343 3.8011 12.8029 4.17013 12.6874 4.5167L12.4818 5.13357L12.5571 5.15982C13.2112 5.37768 13.816 5.72224 14.337 6.17384C14.8579 6.62544 15.2848 7.17523 15.5933 7.79182C15.7972 8.20132 15.8164 8.6782 15.4236 8.99407C15.8978 9.6512 16.0947 10.5139 15.8978 11.3417C15.7114 12.1283 15.5741 12.9316 15.5741 13.5624C15.5741 14.1933 15.7114 14.9966 15.8978 15.7832C16.2924 17.4474 15.0998 19.2499 13.2571 19.2499H7.74369C5.90094 19.2499 4.70744 17.4474 5.10206 15.7832C5.28844 14.9957 5.42581 14.1933 5.42581 13.5624C5.42581 12.9316 5.28844 12.1274 5.10206 11.3417C4.90606 10.5139 5.10206 9.6512 5.57631 8.99407ZM10.2514 3.28907C10.3499 3.24006 10.4606 3.22131 10.5697 3.23517C10.6787 3.24904 10.7813 3.29491 10.8643 3.36698C10.9473 3.43906 11.0072 3.53412 11.0362 3.64017C11.0653 3.74621 11.0623 3.85848 11.0276 3.96282L10.6828 4.99532C10.6282 5.15889 10.6064 5.33161 10.6186 5.50361C10.6308 5.67561 10.6768 5.84352 10.7539 5.99775C10.831 6.15198 10.9377 6.2895 11.068 6.40246C11.1983 6.51542 11.3496 6.6016 11.5132 6.65607L12.0032 6.8197C12.6188 7.02463 13.1653 7.39665 13.5817 7.8942C13.4743 7.88111 13.3661 7.87468 13.2579 7.87494H7.74194C7.6311 7.87494 7.5229 7.88136 7.41731 7.8942C7.83348 7.39678 8.37967 7.02478 8.99494 6.8197L9.48494 6.65607C9.64862 6.60169 9.79998 6.51557 9.93036 6.40265C10.0607 6.28973 10.1676 6.15222 10.2448 5.99799C10.322 5.84375 10.368 5.6758 10.3803 5.50376C10.3925 5.33172 10.3708 5.15894 10.3162 4.99532L9.97144 3.96282C9.88394 3.70032 10.0029 3.41332 10.2506 3.28995M6.80306 10.9392C6.63944 10.2427 7.16006 9.62494 7.74369 9.62494H13.2579C13.8407 9.62494 14.3604 10.2427 14.1959 10.9374C13.9999 11.7661 13.8258 12.7259 13.8258 13.5624C13.8258 14.3981 13.9999 15.3588 14.1959 16.1866C14.3613 16.8822 13.8407 17.4991 13.2579 17.4991H7.74369C7.16094 17.4991 6.64031 16.8822 6.80481 16.1866C6.83981 16.0431 6.87306 15.8958 6.90456 15.7447C6.93548 15.7482 6.96727 15.7499 6.99994 15.7499H9.62494C9.857 15.7499 10.0796 15.6578 10.2437 15.4937C10.4078 15.3296 10.4999 15.107 10.4999 14.8749C10.4999 14.6429 10.4078 14.4203 10.2437 14.2562C10.0796 14.0921 9.857 13.9999 9.62494 13.9999H7.16006C7.17831 13.7086 7.17831 13.4163 7.16006 13.1249H9.62494C9.857 13.1249 10.0796 13.0328 10.2437 12.8687C10.4078 12.7046 10.4999 12.482 10.4999 12.2499C10.4999 12.0179 10.4078 11.7953 10.2437 11.6312C10.0796 11.4671 9.857 11.3749 9.62494 11.3749H6.90281C6.87131 11.2262 6.83835 11.0804 6.80394 10.9374" fill="#FFBD59"/>
</g>
<defs>
<clipPath id="clip0_270_86">
<rect width="21" height="21" fill="white"/>
</clipPath>
</defs>
</svg>
